# xmcd CD database file
#
# Track frame offsets:
#	150
#	18459
#	36423
#	52093
#	70336
#	85091
#	95783
#	117190
#	136438
#	156289
#	168515
#	182381
#	201899
#	217608
#	237553
#	253752
#
# Disc length: 3552 seconds
#
# Revision: 0
# Processed by: cddbd v1.5.1PL0 Copyright (c) Steve Scherf et al.
# Submitted via: CDex 1.50
#
DISCID=e50dde10
DTITLE=Stacy Wilkerson - Country At Heart
DYEAR=1997
DGENRE=Country
TTITLE0=Whose Bed Have Your Boots Been Under
TTITLE1=Solitary Tear
TTITLE2=The Light In Your Eyes
TTITLE3=Unchained Melody
TTITLE4=Just The Same
TTITLE5=Blue Moon Of Kentucky
TTITLE6=Is There Life After Love
TTITLE7=Colors Of The Wind
TTITLE8=Fancy
TTITLE9=Crazy
TTITLE10=No One Needs To Know
TTITLE11=How Do I Live
TTITLE12=Daddy's Hands
TTITLE13=That's How You Know It's Love
TTITLE14=Baby Of Mine
TTITLE15=Blue
EXTD=YEAR: 1997
EXTT0=
EXTT1=
EXTT2=
EXTT3=
EXTT4=
EXTT5=
EXTT6=
EXTT7=
EXTT8=
EXTT9=
EXTT10=
EXTT11=
EXTT12=
EXTT13=
EXTT14=
EXTT15=
PLAYORDER=
